<svg xmlns="http://www.w3.org/2000/svg" viewBox="0 0 553.32 251.68"><defs><style>.cls-1{fill:#00a051;}.cls-2{fill:#231815;}</style></defs><g id="レイヤー_2" data-name="レイヤー 2"><g id="LION_CI" data-name="LION CI"><path class="cls-1" d="M108.45,212.45l-7.33,36.63H0l30.8-159H68.34L44.65,212.45Zm49.28,36.63,30.77-159H149.93l-30.78,159Zm381.39-159H500.55l-18.92,97.67L439,90.11H400.41l-30.77,159h38.57l18.12-91.74,39.35,91.74h42.71Zm-261.23-2.6A82.09,82.09,0,1,0,360,169.6,82.1,82.1,0,0,0,277.89,87.51Zm46,82.09a46,46,0,1,1-46-46A46,46,0,0,1,323.89,169.6Z"/><path class="cls-2" d="M550.69,47.17a8.64,8.64,0,0,0-6.27-2.59,8.82,8.82,0,0,0-6.24,15.06,8.54,8.54,0,0,0,6.24,2.59,8.64,8.64,0,0,0,6.27-2.59,8.71,8.71,0,0,0,0-12.47ZM544.42,59.7A6,6,0,0,1,540,57.87a6.09,6.09,0,0,1-1.84-4.46,6.28,6.28,0,0,1,6.22-6.23A6.1,6.1,0,0,1,548.88,49a6,6,0,0,1,1.84,4.39,6.27,6.27,0,0,1-6.3,6.29ZM102.63,28.76a1.32,1.32,0,0,1,.15,1,1.17,1.17,0,0,1-1.58.95c-.57-.14-1.27-.31-2.06-.52a3.34,3.34,0,0,1,.33,1.42,2.63,2.63,0,0,1-.83,2,2.82,2.82,0,0,1-2,.79,3.83,3.83,0,0,1-1.47-.3C81.88,28.27,72.56,19.54,67.43,8.15l-.15,0A92.74,92.74,0,0,1,54.41,25.08,72,72,0,0,1,37.77,38a1.34,1.34,0,0,1-.63.16,1.16,1.16,0,0,1-1.26-1.33,1,1,0,0,1,.48-.89A132.76,132.76,0,0,0,52,19.86,88.82,88.82,0,0,0,63.44,3.08a3.17,3.17,0,0,1,3.12-1.93,3.45,3.45,0,0,1,2.52,1,3.45,3.45,0,0,1,1,2.52,3.77,3.77,0,0,1-.48,1.87A42,42,0,0,0,82.45,19.87a55.11,55.11,0,0,0,19.31,8.4A1.31,1.31,0,0,1,102.63,28.76Zm-48.15,3a1.45,1.45,0,0,1-1.62-1.62,1.45,1.45,0,0,1,1.62-1.63h19.1A2.48,2.48,0,0,1,76.34,26a2.72,2.72,0,0,1,2,.82,2.76,2.76,0,0,1,.83,2,2.73,2.73,0,0,1-.83,2,2.56,2.56,0,0,1-1.87.83Zm27.15,9.38a4.14,4.14,0,0,1-.07.81L75.37,65.16a2.48,2.48,0,0,1-2.62,2A2.84,2.84,0,0,1,70,64.41a3.47,3.47,0,0,1,.08-.67l5.57-20.87H47.93c-1.12,0-1.69-.59-1.69-1.76a1.51,1.51,0,0,1,1.69-1.7h28.8a2.82,2.82,0,0,1,2.13-.93,2.9,2.9,0,0,1,1.94.71A2.43,2.43,0,0,1,81.63,41.11ZM175.31,6.33A2.48,2.48,0,0,0,172.86,8H142.8a2.52,2.52,0,0,0-2.52-1.65c-1.84,0-2.77.91-2.77,2.7V63.69a2.82,2.82,0,0,0,2.77,2.78,2.57,2.57,0,0,0,1.92-.83,2.74,2.74,0,0,0,.78-2V62.08h29.63v1.61a2.82,2.82,0,0,0,2.77,2.78,2.57,2.57,0,0,0,1.92-.83,2.74,2.74,0,0,0,.78-2V9C178.08,7.24,177.15,6.33,175.31,6.33Zm-2.7,29.57V58.83H143V35.9Zm0-24.67V32.65H143V11.23Zm92.88,14.46a2.64,2.64,0,0,1-.95,2.14c-4.21,3.55-11.79,8.93-22.53,16a47.39,47.39,0,0,1-.16,8.3,2.07,2.07,0,0,1,.15.77c0,1.74-.85,2.62-2.54,2.62a2.34,2.34,0,0,1-2.63-2.3v0h0c.15-1.4.3-3.52.44-6.31l-3.41,2.2c-2.85,1.82-4.13,3.43-3.79,4.77.24,1.07,1.3,2.08,3.14,3A16.34,16.34,0,0,0,239,58.57c1,.1,2.1.15,3.31.15a75.47,75.47,0,0,0,13.85-1.51,2.21,2.21,0,0,1,.95-.23,2.57,2.57,0,0,1,1.82.75,2.63,2.63,0,0,1-1.42,4.49,68.39,68.39,0,0,1-13.62,1.36,51.28,51.28,0,0,1-5.75-.3,19.62,19.62,0,0,1-7.76-2.81c-2.85-1.78-4.29-4-4.29-6.53,0-2.75,1.92-5.53,5.72-8.26l5.22-3.81c-.4-3.21-1.18-5.11-2.33-5.64a5.17,5.17,0,0,0-1.83-.36A3.52,3.52,0,0,0,230.2,37c-.8,1.55-1.61,3-2.41,4.44A2.33,2.33,0,0,1,225.48,43a2.5,2.5,0,0,1-1.61-4.45,14.57,14.57,0,0,1,1.67-2.34A66.79,66.79,0,0,0,232.87,21c-2.79-.45-5.69-2.46-8.62-6a1.48,1.48,0,0,1-.56-1.14,1.5,1.5,0,0,1,1.72-1.64,2,2,0,0,1,1.45.64,10.5,10.5,0,0,0,7.2,3.36,11.63,11.63,0,0,0,.14-4.34,2.23,2.23,0,0,1-.54-1.5A2.09,2.09,0,0,1,236,8a2.44,2.44,0,0,1,1.76.79,5.35,5.35,0,0,1,1.32,4.41,1.73,1.73,0,0,0,.67,1.58,2.4,2.4,0,0,0,1.76.54,2.25,2.25,0,0,1,1.87.72,2.6,2.6,0,0,1,.76,1.83,2.53,2.53,0,0,1-2.29,2.54,28.63,28.63,0,0,1-4.39.6,84.93,84.93,0,0,1-4.94,11.59l.83,0c3.93,0,6.55,2.15,7.79,6.39,4.83-3.35,11.2-8.19,18.92-14.38a2.71,2.71,0,0,1,2.6-1.71A2.53,2.53,0,0,1,265.49,25.69Zm96.33-8a3.27,3.27,0,0,1-.12,4.76,3.43,3.43,0,0,1-2.52.89l-3.63,2.78a1.56,1.56,0,0,1-.86.31c-.83,0-1.26-.41-1.26-1.19a1.12,1.12,0,0,1,.23-.64l1.5-3.2H307.74a22.13,22.13,0,0,1-1.57,5.55,3.63,3.63,0,0,1-3.41,2.43,2.92,2.92,0,0,1-2.17-.93,3.1,3.1,0,0,1-.89-2.2,2.82,2.82,0,0,1,2.64-3.12,44,44,0,0,0,3.34-5.34,1.31,1.31,0,0,1,1.25-.86,1.18,1.18,0,0,1,.89.32,1.37,1.37,0,0,1,.31,1h32.54c2.07-4.15,3.42-7,4.13-8.64a3.08,3.08,0,0,1,3-2.08A2.72,2.72,0,0,1,350.7,9.8a3,3,0,0,1-.6,2.61,2.89,2.89,0,0,1-2.33,1.12c-1.27,1.58-2.63,3.15-4,4.67h12.91a3.3,3.3,0,0,1,2.87-1.51A3.15,3.15,0,0,1,361.82,17.66Zm-1.16,43.12-1.54,0h0a45.78,45.78,0,0,1-22-5.32A71.59,71.59,0,0,0,344,49.35a3.52,3.52,0,0,0,2.55-1,3.17,3.17,0,0,0,1-2.31,3.35,3.35,0,0,0-5.85-2H325l.77-1a2.57,2.57,0,0,0,2-2.68,2.77,2.77,0,0,0-.65-1.83c1.82,0,3.12.07,4,.07,2,0,4.62,0,7.84-.07h4.34a3.06,3.06,0,0,0,3-3.06,2.91,2.91,0,0,0-.93-2.17,3,3,0,0,0-2.13-.89,3.19,3.19,0,0,0-1,.17V30.9a1.26,1.26,0,1,0-2.52,0V34H324c-.52,0-.75-.22-.75-.68V25.93a2.35,2.35,0,0,0-4.69,0v7.34c0,3.2,1.47,4.95,4.37,5.2-5.83,8.5-12.32,15.14-19.27,19.73a1.23,1.23,0,0,0-.63,1.11,1.13,1.13,0,0,0,1.26,1.26,1.27,1.27,0,0,0,.62-.16,50.06,50.06,0,0,0,17.63-13.36H323A35.46,35.46,0,0,0,329.63,55,61.09,61.09,0,0,1,307.2,65a1.21,1.21,0,0,0-1.1,1.26,1.42,1.42,0,0,0,.29,1,1.12,1.12,0,0,0,.87.33l.25,0c8.83-.62,17.54-3.78,25.89-9.39a45.19,45.19,0,0,0,22.07,8.75c1.94.19,2.93-.62,2.93-2.42a3.66,3.66,0,0,0-.18-1.1,21.8,21.8,0,0,0,2.44,0,1.32,1.32,0,0,0,1-.34,1.17,1.17,0,0,0,.26-.92C361.92,60.91,361.2,60.74,360.66,60.78ZM339,47.05a69.69,69.69,0,0,1-6.28,5.64,36.35,36.35,0,0,1-6.37-5.64ZM316.6,14.87l-1.5-3.2A1.39,1.39,0,0,1,315,11a1.1,1.1,0,0,1,1.26-1.19,1.15,1.15,0,0,1,.71.24c3.32,1.9,4.94,3.63,4.94,5.27a2.39,2.39,0,0,1-2.7,2.7,2.55,2.55,0,0,1-2.07-1A2.49,2.49,0,0,1,316.6,14.87Zm14.75,13c-.45-.64-1.43-2-2.93-4a1.64,1.64,0,0,1-.31-.93c0-.78.39-1.19,1.12-1.19a1.9,1.9,0,0,1,.84.23,25.34,25.34,0,0,1,5.49,3.68,2.67,2.67,0,0,1,.9,2,2.3,2.3,0,0,1-2.56,2.63A2.27,2.27,0,0,1,331.35,27.84Zm22.29,7.91L349,29.6a1.64,1.64,0,0,1-.31-.93,1.06,1.06,0,0,1,1.19-1.19c1.33,0,3.28,1,6,3.15s4,3.81,4,5.16a3.21,3.21,0,0,1-.9,2.27,2.89,2.89,0,0,1-2.17.93,3.05,3.05,0,0,1-2.27-1A3,3,0,0,1,353.64,35.75ZM307.18,9a1.26,1.26,0,0,1,1.17-1.33c14.53-2,27.63-4,38.93-6A2.76,2.76,0,0,1,349.94,0a3.35,3.35,0,0,1,1.64.45,2.85,2.85,0,0,1,1.57,2.61,2.93,2.93,0,0,1-2.83,3.13c-5.92.9-12.89,1.73-20.83,2.48a2,2,0,0,1,.38.2c3.08,2.31,4.65,4.4,4.65,6.2s-.91,2.78-2.7,2.78a2.49,2.49,0,0,1-1.88-.8,2.65,2.65,0,0,1-.61-2.7c-1.15-3.77-1.42-4.47-1.47-4.55l.08-.05h-.12a1.17,1.17,0,0,1,.37-1q-9,.83-19.6,1.5h-.15A1.13,1.13,0,0,1,307.18,9Zm-.25,31a2.78,2.78,0,0,1-2.09-1,3.1,3.1,0,0,1-.9-2.16,3.18,3.18,0,0,1,.82-2.13,2.94,2.94,0,0,1,2-1A66.4,66.4,0,0,0,310.72,28a1.22,1.22,0,0,1,1.1-.7c.58,0,1.26.24,1.26,1.41a18.41,18.41,0,0,1-3.25,9.7A3.35,3.35,0,0,1,306.93,40.07ZM446.8,17.63c-.89,0-1.79,0-2.68,0A104.09,104.09,0,0,0,429,18.73c.16-2.37.23-4.05.23-5.15,0-2.86-.58-5-1.72-6.27s-3-2-5.56-2c-1.26,0-1.9.51-1.9,1.66a1.64,1.64,0,0,0,1.32,1.65c1.81.57,2.73,2.39,2.73,5.41h0c0,.12,0,.47-.1,1.42s-.13,2.35-.23,4.23c-2.6.52-5.19,1.07-7.72,1.65A50.35,50.35,0,0,1,406.27,23a10.4,10.4,0,0,1-6.85-2.52,2,2,0,0,0-1.31-.58,1.55,1.55,0,0,0-1.27.47,2,2,0,0,0-.23,1.68c.8,4.09,3.3,6.16,7.44,6.16,1.85,0,5.4-.64,10.57-1.9,3.22-.78,6.25-1.44,9-2,0,2.54.05,5,.15,7.42a9.41,9.41,0,0,0-3.09-.52c-3.13,0-5.45,1.16-6.88,3.45a6.41,6.41,0,0,0-.89,3.28,9.22,9.22,0,0,0,2.16,5.6c3,3.9,5.72,5.91,8,6-2.44,5.45-7.66,9.11-15.53,10.88-1.09.28-1.64.89-1.64,1.82a1.66,1.66,0,0,0,.42,1.22,1.75,1.75,0,0,0,1.26.4,4.7,4.7,0,0,0,.62,0c7.8-1.38,13.61-4.18,17.25-8.35A18.18,18.18,0,0,0,430,43.16a15.25,15.25,0,0,0-1.59-7.48,95.55,95.55,0,0,1,.15-12.12,72.21,72.21,0,0,1,17.61-.23,3.5,3.5,0,0,0,2.43-.57,2.71,2.71,0,0,0,1.14-2.2C449.72,18.67,448.74,17.69,446.8,17.63Zm-24.69,26q-.53.21-1.68-.78a14.12,14.12,0,0,1-2.68-3.16,4.88,4.88,0,0,1-.78-2.34,2.35,2.35,0,0,1,.89-1.89,3.13,3.13,0,0,1,2.05-.74,4.16,4.16,0,0,1,3.9,2.33C423.86,41.13,423.29,43.34,422.11,43.65Zm77.28-13.82a20.18,20.18,0,0,0-5.19.69c3.73-4.44,7-8.09,9.64-10.86a7.22,7.22,0,0,0,2.42-4.92,4.15,4.15,0,0,0-.58-2.14,4.44,4.44,0,0,0-4-2c-1.76,0-4.18.78-7.2,2.31-3.34,1.68-5.7,2.53-7,2.53a2.56,2.56,0,0,1-1.92-.83,2.43,2.43,0,0,0-1.65-.92,1.53,1.53,0,0,0-1.71,1.72,2.1,2.1,0,0,0,.42,1.26c1.54,2.35,3.31,3.7,5.24,4s4.42-.7,7.39-3C497.4,16,499,15.1,500.1,15.1a1.25,1.25,0,0,1,.55.14c.07.1.12.49-1.2,1.94-3.73,4.05-11.3,12.93-22.51,26.4a2.57,2.57,0,0,0-1.47,2.48,2.37,2.37,0,0,0,2.67,2.67,2.71,2.71,0,0,0,2.24-1.08c3.32-4.21,6-7.57,7.92-10a12.64,12.64,0,0,1,9.4-3.61h.5a11.2,11.2,0,0,1,7.92,3.13,10,10,0,0,1,3.13,7.44,11.94,11.94,0,0,1-1.42,5.49,11.09,11.09,0,0,1-4.9,5c-2.7-5-6-7.49-9.81-7.49a6.29,6.29,0,0,0-2,.33c-3.91,1.39-5.67,4-5.24,7.82.32,3.55,2.87,5.54,7.57,5.91.74.05,1.46.08,2.15.08,8,0,13.67-3,16.85-8.95A16.5,16.5,0,0,0,514.35,45a15.1,15.1,0,0,0-3.2-9.68A14.15,14.15,0,0,0,499.39,29.83Zm-1.64,26.75c-5,.62-7.66-.13-8-2.22a1.87,1.87,0,0,1,.56-1.79,2.42,2.42,0,0,1,1.77-.83C494,51.74,495.91,53.37,497.75,56.58Z"/></g></g></svg>